<svg width="432" height="91" viewBox="0 0 432 91" fill="none" xmlns="http://www.w3.org/2000/svg">
<path d="M0.680001 0.799995H8.84V68H0.680001V0.799995ZM35.24 0.799995H45.32L16.232 32.288L46.76 68H36.68L6.344 32.48L35.24 0.799995ZM68.663 68.96C64.567 68.96 60.919 68 57.719 66.08C54.583 64.096 52.119 61.376 50.327 57.92C48.599 54.464 47.735 50.464 47.735 45.92C47.735 41.312 48.631 37.28 50.423 33.824C52.279 30.368 54.839 27.68 58.103 25.76C61.431 23.84 65.271 22.88 69.623 22.88C73.975 22.88 77.687 23.808 80.759 25.664C83.895 27.456 86.295 30.048 87.959 33.44C89.623 36.832 90.455 40.864 90.455 45.536C90.455 45.984 90.423 46.464 90.359 46.976C90.359 47.424 90.359 47.712 90.359 47.84H52.631V41.312H84.311L81.239 45.728C81.431 45.408 81.623 44.928 81.815 44.288C82.007 43.584 82.103 43.008 82.103 42.56C82.103 39.936 81.559 37.664 80.471 35.744C79.447 33.824 78.007 32.32 76.151 31.232C74.295 30.144 72.119 29.6 69.623 29.6C66.679 29.6 64.151 30.24 62.039 31.52C59.991 32.736 58.391 34.528 57.239 36.896C56.151 39.2 55.575 42.048 55.511 45.44C55.511 48.896 56.055 51.84 57.143 54.272C58.231 56.704 59.831 58.56 61.943 59.84C64.055 61.12 66.615 61.76 69.623 61.76C72.631 61.76 75.287 61.12 77.591 59.84C79.895 58.496 81.847 56.48 83.447 53.792L89.687 57.728C87.383 61.44 84.471 64.256 80.951 66.176C77.495 68.032 73.399 68.96 68.663 68.96ZM92.375 23.84H101.015L113.495 55.04L125.975 23.84H134.615L113.495 71.36L92.375 23.84ZM141.856 5.6C141.856 4.128 142.368 2.88 143.392 1.856C144.48 0.831997 145.728 0.319996 147.136 0.319996C148.608 0.319996 149.856 0.831997 150.88 1.856C151.904 2.88 152.416 4.128 152.416 5.6C152.416 7.008 151.904 8.256 150.88 9.344C149.856 10.368 148.608 10.88 147.136 10.88C145.728 10.88 144.48 10.368 143.392 9.344C142.368 8.256 141.856 7.008 141.856 5.6ZM143.296 23.84H150.976V68H143.296V23.84ZM195.114 41.12C195.114 37.472 194.314 34.72 192.714 32.864C191.114 31.008 188.778 30.08 185.706 30.08C183.466 30.08 181.482 30.56 179.754 31.52C178.09 32.416 176.778 33.696 175.818 35.36C174.922 37.024 174.474 38.944 174.474 41.12V68H166.794V23.84H174.474V30.752C175.946 28.064 177.77 26.08 179.946 24.8C182.186 23.52 184.746 22.88 187.626 22.88C192.298 22.88 195.978 24.448 198.666 27.584C201.418 30.656 202.794 34.848 202.794 40.16V68H195.114V41.12ZM232.38 77.984C233.084 79.072 234.108 79.904 235.452 80.48C236.732 81.12 238.236 81.44 239.965 81.44C241.437 81.44 242.877 80.768 244.285 79.424C245.757 78.144 246.493 75.936 246.493 72.8V0.799995H254.173V73.76C254.173 76.384 253.821 78.656 253.117 80.576C252.477 82.496 251.517 84.096 250.237 85.376C248.957 86.656 247.389 87.584 245.533 88.16C243.741 88.8 241.725 89.12 239.485 89.12C237.82 89.12 236.22 88.832 234.684 88.256C233.084 87.744 231.74 87.104 230.652 86.336C229.5 85.632 228.668 84.96 228.156 84.32L232.38 77.984ZM269.075 5.6C269.075 4.128 269.587 2.88 270.611 1.856C271.699 0.831997 272.947 0.319996 274.355 0.319996C275.827 0.319996 277.075 0.831997 278.099 1.856C279.123 2.88 279.635 4.128 279.635 5.6C279.635 7.008 279.123 8.256 278.099 9.344C277.075 10.368 275.827 10.88 274.355 10.88C272.947 10.88 271.699 10.368 270.611 9.344C269.587 8.256 269.075 7.008 269.075 5.6ZM270.515 23.84H278.195V68H270.515V23.84ZM297.469 54.368C297.469 56.032 297.853 57.472 298.621 58.688C299.453 59.904 300.573 60.832 301.981 61.472C303.453 62.048 305.117 62.336 306.973 62.336C309.341 62.336 311.453 61.856 313.309 60.896C315.229 59.936 316.733 58.592 317.821 56.864C318.973 55.072 319.549 53.024 319.549 50.72L321.085 56.48C321.085 59.296 320.221 61.632 318.493 63.488C316.829 65.344 314.749 66.72 312.253 67.616C309.821 68.512 307.389 68.96 304.957 68.96C302.269 68.96 299.741 68.416 297.373 67.328C295.069 66.176 293.213 64.544 291.805 62.432C290.397 60.32 289.693 57.76 289.693 54.752C289.693 50.464 291.197 47.04 294.205 44.48C297.277 41.856 301.533 40.544 306.973 40.544C310.173 40.544 312.829 40.928 314.941 41.696C317.117 42.4 318.845 43.232 320.125 44.192C321.405 45.088 322.269 45.824 322.717 46.4V50.912C320.477 49.376 318.173 48.288 315.805 47.648C313.437 46.944 310.909 46.592 308.221 46.592C305.725 46.592 303.677 46.912 302.077 47.552C300.541 48.192 299.389 49.088 298.621 50.24C297.853 51.392 297.469 52.768 297.469 54.368ZM296.317 34.016L292.573 28.352C294.237 27.136 296.509 25.92 299.389 24.704C302.333 23.488 305.853 22.88 309.949 22.88C313.405 22.88 316.413 23.424 318.973 24.512C321.597 25.536 323.613 27.04 325.021 29.024C326.493 31.008 327.229 33.44 327.229 36.32V68H319.549V37.376C319.549 35.84 319.293 34.592 318.781 33.632C318.269 32.608 317.533 31.808 316.573 31.232C315.677 30.656 314.621 30.24 313.405 29.984C312.189 29.728 310.909 29.6 309.565 29.6C307.389 29.6 305.405 29.856 303.613 30.368C301.885 30.88 300.413 31.488 299.197 32.192C297.981 32.896 297.021 33.504 296.317 34.016ZM368.551 41.12C368.551 37.472 367.751 34.72 366.151 32.864C364.551 31.008 362.215 30.08 359.143 30.08C356.903 30.08 354.919 30.56 353.191 31.52C351.527 32.416 350.215 33.696 349.255 35.36C348.359 37.024 347.911 38.944 347.911 41.12V68H340.231V23.84H347.911V30.752C349.383 28.064 351.207 26.08 353.383 24.8C355.623 23.52 358.183 22.88 361.063 22.88C365.735 22.88 369.415 24.448 372.103 27.584C374.855 30.656 376.231 34.848 376.231 40.16V68H368.551V41.12ZM387.693 70.88H395.469C395.469 72.992 396.045 74.944 397.197 76.736C398.349 78.592 399.981 80.064 402.093 81.152C404.205 82.304 406.701 82.88 409.581 82.88C411.821 82.88 414.029 82.336 416.205 81.248C418.381 80.16 420.173 78.432 421.581 76.064C423.053 73.76 423.789 70.752 423.789 67.04V23.84H431.469V67.04C431.469 72.096 430.413 76.32 428.301 79.712C426.189 83.168 423.469 85.76 420.141 87.488C416.813 89.216 413.293 90.08 409.581 90.08C405.293 90.08 401.485 89.28 398.157 87.68C394.893 86.08 392.333 83.808 390.477 80.864C388.621 77.984 387.693 74.656 387.693 70.88ZM386.829 45.92C386.829 41.12 387.821 37.024 389.805 33.632C391.789 30.176 394.445 27.52 397.773 25.664C401.101 23.808 404.749 22.88 408.717 22.88C412.429 22.88 415.661 23.808 418.413 25.664C421.165 27.52 423.309 30.176 424.845 33.632C426.445 37.024 427.245 41.12 427.245 45.92C427.245 50.656 426.445 54.752 424.845 58.208C423.309 61.664 421.165 64.32 418.413 66.176C415.661 68.032 412.429 68.96 408.717 68.96C404.749 68.96 401.101 68.032 397.773 66.176C394.445 64.32 391.789 61.664 389.805 58.208C387.821 54.752 386.829 50.656 386.829 45.92ZM394.605 45.92C394.605 49.312 395.277 52.192 396.621 54.56C398.029 56.928 399.885 58.72 402.189 59.936C404.493 61.152 406.989 61.76 409.677 61.76C411.917 61.76 414.125 61.152 416.301 59.936C418.477 58.72 420.269 56.928 421.677 54.56C423.085 52.192 423.789 49.312 423.789 45.92C423.789 43.36 423.373 41.12 422.541 39.2C421.709 37.216 420.589 35.552 419.181 34.208C417.837 32.864 416.333 31.84 414.669 31.136C413.005 30.432 411.341 30.08 409.677 30.08C406.989 30.08 404.493 30.688 402.189 31.904C399.885 33.12 398.029 34.912 396.621 37.28C395.277 39.648 394.605 42.528 394.605 45.92Z" fill="black"/>
</svg>
