<svg xmlns="http://www.w3.org/2000/svg" viewBox="0 12.550000190734863 212.8000030517578 38.54999923706055" data-asc="1.006" width="212.8000030517578" height="38.54999923706055"><defs/><g><g><g transform="translate(0, 0)"><path d="M18.95 50.80Q16.90 46.10 14.85 41.40Q12.80 36.70 10.80 31.95Q10.20 30.55 9.55 28.90Q8.90 27.25 8.25 25.40Q7.60 23.55 7 21.65Q7 22.95 7 24.15Q7 25.35 7 26.45Q6.95 28.00 6.90 30.07Q6.85 32.15 6.78 34.45Q6.70 36.75 6.68 39.02Q6.65 41.30 6.60 43.40Q6.60 44.60 6.55 45.75Q6.50 46.90 6.40 47.75Q7.30 47.65 8.33 47.63Q9.35 47.60 10.15 47.55L10.15 50.30L0 50.30L0 48.10Q1.40 48.05 2.15 47.55Q2.90 47.05 3.18 46.05Q3.45 45.05 3.50 43.60L4.20 22.00Q4.25 20.90 4.30 19.80Q4.35 18.70 4.40 17.85Q3.50 17.90 2.50 17.92Q1.50 17.95 0.75 18.00L0.75 15.30L9.50 15.30L17.75 35Q18.35 36.35 18.95 37.88Q19.55 39.40 20.18 40.88Q20.80 42.35 21.30 43.65L21.40 43.65Q21.95 42.15 22.65 40.35Q23.35 38.55 23.85 37.15Q26 31.75 28.23 26.35Q30.45 20.95 32.60 15.30L41.40 15.30L41.40 17.50Q40.20 17.50 39.38 17.92Q38.55 18.35 38.18 19.45Q37.80 20.55 37.90 22.60L39 44.15Q39.10 45.15 39.08 46.10Q39.05 47.05 39 47.70Q39.90 47.65 40.93 47.63Q41.95 47.60 42.70 47.55L42.70 50.30L30.60 50.30L30.60 48.10Q32.05 48.05 32.83 47.50Q33.60 46.95 33.85 45.77Q34.10 44.60 34 42.70L33.20 28.15Q33.15 27.40 33.10 26.37Q33.05 25.35 32.98 24.22Q32.90 23.10 32.85 22.05Q32.70 22.40 32.55 22.77Q32.40 23.15 32.25 23.60L21.50 50.80L18.95 50.80ZM61.45 50.30Q61.35 49.50 61.30 48.90Q61.25 48.30 61.15 47.65Q59.45 49.35 57.50 50.22Q55.55 51.10 53.45 51.10Q49.85 51.10 48.03 49.32Q46.20 47.55 46.20 44.90Q46.20 42.60 47.55 40.90Q48.90 39.20 51.10 38.13Q53.30 37.05 55.90 36.52Q58.50 36 61 36L61 33.05Q61 31.45 60.70 30.07Q60.40 28.70 59.48 27.82Q58.55 26.95 56.60 26.95Q55.30 26.90 54.00 27.42Q52.70 27.95 52.00 29.15Q52.40 29.55 52.53 30.07Q52.65 30.60 52.65 31.05Q52.65 31.75 52.05 32.63Q51.45 33.50 50.00 33.45Q48.80 33.45 48.18 32.63Q47.55 31.80 47.55 30.70Q47.55 28.90 48.88 27.50Q50.20 26.10 52.50 25.30Q54.80 24.50 57.65 24.50Q61.95 24.50 64.08 26.75Q66.20 29.00 66.20 33.85Q66.20 35.65 66.20 37.30Q66.20 38.95 66.18 40.60Q66.15 42.25 66.15 44.10Q66.15 44.85 66.10 45.80Q66.05 46.75 65.95 47.80Q66.80 47.75 67.70 47.70Q68.60 47.65 69.40 47.65L69.40 50.30L61.45 50.30M61 38.30Q59.40 38.40 57.73 38.75Q56.05 39.10 54.70 39.80Q53.35 40.50 52.53 41.60Q51.70 42.70 51.70 44.25Q51.80 45.95 52.83 46.75Q53.85 47.55 55.25 47.55Q57.00 47.55 58.35 46.88Q59.70 46.20 61 45Q60.95 44.45 60.95 43.88Q60.95 43.30 60.95 42.65Q60.95 42.20 60.98 40.97Q61 39.75 61 38.30ZM82.20 51.10Q80.95 51.10 79.67 50.77Q78.40 50.45 77.35 49.47Q76.30 48.50 75.70 46.65Q75.10 44.80 75.10 41.75L75.20 28.10L71.50 28.10L71.50 25.30Q72.85 25.25 74.25 24.30Q75.65 23.35 76.70 21.75Q77.75 20.15 78.15 18.30L80.50 18.30L80.50 25.30L88.20 25.30L88.20 27.90L80.50 28.00L80.40 41.35Q80.40 43.25 80.72 44.67Q81.05 46.10 81.83 46.88Q82.60 47.65 83.95 47.65Q85.10 47.65 86.33 46.95Q87.55 46.25 88.65 44.65L90.35 46.15Q89.15 47.90 87.95 48.90Q86.75 49.90 85.65 50.38Q84.55 50.85 83.65 50.97Q82.75 51.10 82.20 51.10ZM102 51.10Q100.75 51.10 99.47 50.77Q98.20 50.45 97.15 49.47Q96.10 48.50 95.50 46.65Q94.90 44.80 94.90 41.75L95 28.10L91.30 28.10L91.30 25.30Q92.65 25.25 94.05 24.30Q95.45 23.35 96.50 21.75Q97.55 20.15 97.95 18.30L100.30 18.30L100.30 25.30L108 25.30L108 27.90L100.30 28.00L100.20 41.35Q100.20 43.25 100.53 44.67Q100.85 46.10 101.63 46.88Q102.40 47.65 103.75 47.65Q104.90 47.65 106.13 46.95Q107.35 46.25 108.45 44.65L110.15 46.15Q108.95 47.90 107.75 48.90Q106.55 49.90 105.45 50.38Q104.35 50.85 103.45 50.97Q102.55 51.10 102 51.10ZM125.35 50.30L125.35 47.50Q128.45 43 132.63 36.90Q136.80 30.80 142.15 22.35Q142.95 21.10 143.72 19.95Q144.50 18.80 145.45 17.70L134.10 17.75Q131.25 17.80 129.65 19.67Q128.05 21.55 128.05 25.75L125.85 25.75L126.15 15.30L151.15 15.30L151.15 17.70L134.40 43.15Q133.30 44.75 132.45 45.88Q131.60 47 130.70 47.90L141.85 47.85Q144.95 47.80 147.03 45.92Q149.10 44.05 149.10 39.90L151.35 39.90L151.05 50.30L125.35 50.30ZM171.45 48.20Q172.95 48.20 173.58 47.50Q174.20 46.80 174.33 45.55Q174.45 44.30 174.45 42.65L174.40 35.65Q174.40 31.70 173.18 29.72Q171.95 27.75 169.25 27.80Q167.60 27.85 166.03 28.60Q164.45 29.35 163.40 30.50L163.40 44.10Q163.40 45 163.35 45.92Q163.30 46.85 163.20 47.80Q164 47.75 164.83 47.72Q165.65 47.70 166.35 47.65L166.35 50.30L155.20 50.30L155.20 48.20Q156.70 48.20 157.30 47.50Q157.90 46.80 158.05 45.55Q158.20 44.30 158.20 42.65L158.20 20.05Q158.20 19.20 158.22 18.32Q158.25 17.45 158.35 16.45Q157.50 16.50 156.55 16.52Q155.60 16.55 154.80 16.60L154.80 13.95Q157.05 13.95 158.40 13.72Q159.75 13.50 160.47 13.20Q161.20 12.90 161.55 12.55L163.40 12.55L163.40 27.65Q164.50 26.75 165.85 26.05Q167.20 25.35 168.63 24.92Q170.05 24.50 171.30 24.50Q175.75 24.50 177.68 27.20Q179.60 29.90 179.65 35.65L179.65 44.10Q179.65 45 179.63 45.92Q179.60 46.85 179.45 47.80Q180.25 47.75 181.10 47.72Q181.95 47.70 182.65 47.65L182.65 50.30L171.45 50.30L171.45 48.20ZM196.60 51.10Q193.80 51.10 191.98 50.05Q190.15 49 189.25 46.57Q188.35 44.15 188.35 40.15L188.35 32.30Q188.35 31.45 188.38 30.52Q188.40 29.60 188.55 28.70Q187.70 28.75 186.75 28.77Q185.80 28.80 185.05 28.85L185.05 26.20L186.25 26.20Q188.75 26.20 190.00 25.75Q191.25 25.30 191.75 24.80L193.65 24.80L193.65 40.05Q193.65 44 194.75 45.95Q195.85 47.90 198.45 47.85Q200.15 47.85 201.73 46.85Q203.30 45.85 204.30 44.50L204.30 32.65Q204.30 31.55 204.35 30.57Q204.40 29.60 204.55 28.70Q203.65 28.75 202.70 28.77Q201.75 28.80 200.95 28.85L200.95 26.20L202.40 26.20Q204.60 26.20 205.85 25.75Q207.10 25.30 207.65 24.80L209.55 24.80L209.50 43.20Q209.50 44 209.45 45.38Q209.40 46.75 209.30 47.80Q210.15 47.75 211.08 47.70Q212.00 47.65 212.80 47.65L212.80 50.30L204.85 50.30Q204.75 49.50 204.68 48.80Q204.60 48.10 204.50 47.45Q202.95 48.90 200.90 50Q198.85 51.10 196.60 51.10Z"/></g></g></g></svg>